<svg width="723.15" height="145.801" viewBox="0 0 723.15 145.801" xmlns="http://www.w3.org/2000/svg">
	<g id="svgGroup" stroke-linecap="round" fill-rule="evenodd" font-size="9pt" stroke="#000" stroke-width="0.25mm" fill="none" style="stroke:#000;stroke-width:0.25mm;fill:none">
		<path d="M 13.5 111 L 0 111 L 0 0 L 13.5 0 L 13.5 45.45 Q 17.7 39.3 24.15 35.25 A 26.358 26.358 0 0 1 34.837 31.486 A 33.893 33.893 0 0 1 39.3 31.2 Q 52.5 31.2 59.025 39.15 Q 65.212 46.689 65.533 58.813 A 50.646 50.646 0 0 1 65.55 60.15 L 65.55 111 L 52.05 111 L 52.05 61.65 A 29.436 29.436 0 0 0 51.546 56.039 Q 50.901 52.717 49.429 50.095 A 16.474 16.474 0 0 0 48.15 48.15 A 12.63 12.63 0 0 0 38.913 43.13 A 17.969 17.969 0 0 0 37.2 43.05 A 19.844 19.844 0 0 0 27.13 45.85 A 26.378 26.378 0 0 0 24.075 47.925 Q 17.85 52.8 13.5 59.4 L 13.5 111 Z" id="0" vector-effect="non-scaling-stroke"/>
		<path d="M 102.3 111 L 88.8 111 L 88.8 33 L 102.3 33 L 102.3 111 Z M 89.006 16.932 A 8.959 8.959 0 0 0 95.55 19.65 Q 99.9 19.65 102.45 17.025 A 8.665 8.665 0 0 0 104.587 13.325 A 11.266 11.266 0 0 0 105 10.2 A 10.887 10.887 0 0 0 104.999 10.078 A 9.091 9.091 0 0 0 102.225 3.525 Q 99.45 0.75 95.55 0.75 A 12.396 12.396 0 0 0 93.066 0.987 A 8.492 8.492 0 0 0 88.65 3.3 Q 86.1 5.85 86.1 10.2 A 8.987 8.987 0 0 0 86.838 13.828 A 9.965 9.965 0 0 0 88.875 16.8 A 11.203 11.203 0 0 0 89.006 16.932 Z" id="1" vector-effect="non-scaling-stroke"/>
		<path d="M 126.15 135 L 118.8 130.8 A 86.993 86.993 0 0 0 125.392 121.179 A 72.773 72.773 0 0 0 128.475 115.35 A 67.532 67.532 0 0 0 132.064 105.863 A 87.657 87.657 0 0 0 134.1 97.5 L 147.3 101.25 A 51.027 51.027 0 0 1 144.307 113.173 A 42.939 42.939 0 0 1 140.175 121.2 Q 134.55 129.75 126.15 135 Z" id="2" vector-effect="non-scaling-stroke"/>
		<path d="M 229.8 111 L 216.3 111 L 216.3 33 L 229.8 33 L 229.8 111 Z M 216.506 16.932 A 8.959 8.959 0 0 0 223.05 19.65 Q 227.4 19.65 229.95 17.025 A 8.665 8.665 0 0 0 232.087 13.325 A 11.266 11.266 0 0 0 232.5 10.2 A 10.887 10.887 0 0 0 232.499 10.078 A 9.091 9.091 0 0 0 229.725 3.525 Q 226.95 0.75 223.05 0.75 A 12.396 12.396 0 0 0 220.566 0.987 A 8.492 8.492 0 0 0 216.15 3.3 Q 213.6 5.85 213.6 10.2 A 8.987 8.987 0 0 0 214.338 13.828 A 9.965 9.965 0 0 0 216.375 16.8 A 11.203 11.203 0 0 0 216.506 16.932 Z" id="4" vector-effect="non-scaling-stroke"/>
		<path d="M 258.45 39.3 L 247.8 39.3 L 246.6 6 L 259.65 6 L 258.45 39.3 Z" id="5" vector-effect="non-scaling-stroke"/>
		<path d="M 289.8 111 L 276.3 111 L 276.3 33 L 289.35 33 L 289.35 46.05 Q 293.55 39.75 300 35.475 A 25.808 25.808 0 0 1 313.803 31.213 A 31.287 31.287 0 0 1 314.7 31.2 A 31.491 31.491 0 0 1 321.326 31.859 Q 325.805 32.823 329.228 35.194 A 19.691 19.691 0 0 1 329.925 35.7 Q 335.85 40.2 338.25 47.7 Q 342.9 40.8 349.275 36 A 23.503 23.503 0 0 1 359.461 31.675 A 32.169 32.169 0 0 1 365.1 31.2 A 32.155 32.155 0 0 1 372.432 31.984 Q 377.811 33.243 381.544 36.526 A 19.491 19.491 0 0 1 384.075 39.225 Q 390.3 47.25 390.3 60.15 L 390.3 111 L 376.8 111 L 376.8 61.2 Q 376.8 53.1 373.05 48.075 A 11.961 11.961 0 0 0 364.33 43.131 A 16.017 16.017 0 0 0 362.7 43.05 A 17.889 17.889 0 0 0 352.561 46.241 A 23.994 23.994 0 0 0 350.175 48.075 Q 344.4 53.1 340.05 59.85 L 340.05 111 L 326.55 111 L 326.55 61.2 Q 326.55 53.1 322.8 48.075 A 11.961 11.961 0 0 0 314.08 43.131 A 16.017 16.017 0 0 0 312.45 43.05 A 18.03 18.03 0 0 0 302.972 45.792 A 24.366 24.366 0 0 0 300 47.925 Q 294.15 52.8 289.8 59.4 L 289.8 111 Z" id="6" vector-effect="non-scaling-stroke"/>
		<path d="M 433.8 142.35 L 437.1 131.1 A 18.064 18.064 0 0 0 439.109 132.159 Q 440.351 132.722 441.825 133.2 Q 444.6 134.1 447.45 134.1 Q 460.2 134.1 460.2 118.2 L 460.2 33 L 473.7 33 L 473.7 119.55 A 41.617 41.617 0 0 1 473.274 125.691 Q 472.787 128.948 471.745 131.637 A 21.039 21.039 0 0 1 470.4 134.475 A 21.857 21.857 0 0 1 465.543 140.399 A 20.063 20.063 0 0 1 461.55 143.025 A 26.444 26.444 0 0 1 452.054 145.667 A 32.269 32.269 0 0 1 449.1 145.8 A 40.197 40.197 0 0 1 442.409 145.274 Q 437.548 144.452 433.8 142.35 Z M 460.106 16.932 A 8.959 8.959 0 0 0 466.65 19.65 Q 471 19.65 473.55 17.025 A 8.665 8.665 0 0 0 475.687 13.325 A 11.266 11.266 0 0 0 476.1 10.2 A 10.887 10.887 0 0 0 476.099 10.078 A 9.091 9.091 0 0 0 473.325 3.525 Q 470.55 0.75 466.65 0.75 A 12.396 12.396 0 0 0 464.166 0.987 A 8.492 8.492 0 0 0 459.75 3.3 Q 457.2 5.85 457.2 10.2 A 8.987 8.987 0 0 0 457.938 13.828 A 9.965 9.965 0 0 0 459.975 16.8 A 11.203 11.203 0 0 0 460.106 16.932 Z" id="8" vector-effect="non-scaling-stroke"/>
		<path d="M 517.592 110.791 A 40.821 40.821 0 0 0 530.55 112.8 A 46.089 46.089 0 0 0 533.962 112.675 A 37.886 37.886 0 0 0 550.425 107.7 Q 559.2 102.6 564.3 93.375 A 39.383 39.383 0 0 0 568.279 82.663 A 51.276 51.276 0 0 0 569.4 71.7 A 51.813 51.813 0 0 0 568.672 62.837 A 38.692 38.692 0 0 0 564.225 50.175 Q 559.05 41.1 550.275 36.15 A 37.273 37.273 0 0 0 543.313 33.109 A 41.607 41.607 0 0 0 530.55 31.2 A 46.987 46.987 0 0 0 528.18 31.259 A 39.254 39.254 0 0 0 510.75 36.15 Q 501.9 41.1 496.8 50.25 A 39.034 39.034 0 0 0 492.676 61.635 A 52.509 52.509 0 0 0 491.7 72 A 52.23 52.23 0 0 0 492.097 78.53 A 41.176 41.176 0 0 0 496.725 93.225 Q 501.75 102.45 510.6 107.625 A 36.839 36.839 0 0 0 517.592 110.791 Z M 530.55 100.8 A 28.112 28.112 0 0 0 538.389 99.764 A 21.001 21.001 0 0 0 549 92.775 A 28.204 28.204 0 0 0 554.729 80.64 A 40.657 40.657 0 0 0 555.6 72 A 32.064 32.064 0 0 0 553.763 61.071 A 30.021 30.021 0 0 0 552.3 57.675 A 28.796 28.796 0 0 0 546.042 49.322 A 27.256 27.256 0 0 0 543.375 47.175 Q 537.75 43.2 530.55 43.2 Q 518.7 43.2 512.1 51 A 26.817 26.817 0 0 0 506.589 62.06 Q 505.602 66.047 505.51 70.725 A 49.304 49.304 0 0 0 505.5 71.7 Q 505.5 79.5 508.8 86.175 A 29.156 29.156 0 0 0 514.095 93.735 A 26.441 26.441 0 0 0 517.725 96.825 Q 523.35 100.8 530.55 100.8 Z" id="9" vector-effect="non-scaling-stroke"/>
		<path d="M 580.65 104.7 L 586.35 93.45 A 27.835 27.835 0 0 0 591.065 96.639 Q 593.398 97.905 596.175 98.925 Q 602.1 101.1 608.85 101.1 A 40.669 40.669 0 0 0 613.474 100.855 Q 618.253 100.307 621.202 98.527 A 11.608 11.608 0 0 0 621.525 98.325 A 11.174 11.174 0 0 0 623.825 96.386 A 7.578 7.578 0 0 0 625.8 91.2 A 10.684 10.684 0 0 0 625.329 87.979 A 9.318 9.318 0 0 0 624.225 85.65 A 9.576 9.576 0 0 0 622.832 84.009 Q 621.206 82.451 618.45 80.925 Q 614.656 78.825 607.802 76.419 A 155.394 155.394 0 0 0 606.3 75.9 A 69.925 69.925 0 0 1 599.704 73.286 Q 593.554 70.452 589.875 66.975 Q 584.4 61.8 584.4 52.65 A 18.18 18.18 0 0 1 590.322 39.127 A 26.194 26.194 0 0 1 592.275 37.425 Q 600.15 31.2 614.1 31.2 A 61.191 61.191 0 0 1 620.769 31.546 Q 624.342 31.938 627.45 32.775 A 58.154 58.154 0 0 1 633.652 34.808 A 46.666 46.666 0 0 1 637.95 36.75 L 634.2 47.85 A 36.792 36.792 0 0 0 628.698 45.202 A 45.287 45.287 0 0 0 624.975 43.95 A 37.536 37.536 0 0 0 618.25 42.679 A 47.756 47.756 0 0 0 613.5 42.45 Q 608.496 42.45 605.036 43.746 A 12.764 12.764 0 0 0 601.65 45.6 Q 598.961 47.692 598.057 50.048 A 6.794 6.794 0 0 0 597.6 52.5 A 7.381 7.381 0 0 0 599.843 57.827 A 10.623 10.623 0 0 0 600.75 58.65 Q 603.848 61.158 612.748 64.1 A 126.729 126.729 0 0 0 613.05 64.2 A 101.629 101.629 0 0 1 620.643 67.047 Q 627.863 70.115 632 73.543 A 22.42 22.42 0 0 1 633.75 75.15 A 20.396 20.396 0 0 1 639.576 89.02 A 26.842 26.842 0 0 1 639.6 90.15 A 20.81 20.81 0 0 1 638.007 98.424 Q 636.057 102.976 631.723 106.282 A 24.927 24.927 0 0 1 631.125 106.725 Q 624.016 111.821 612.842 112.642 A 60.634 60.634 0 0 1 608.4 112.8 A 59.985 59.985 0 0 1 599.608 112.184 A 46.422 46.422 0 0 1 592.425 110.55 Q 585.3 108.3 580.65 104.7 Z" id="10" vector-effect="non-scaling-stroke"/>
		<path d="M 671.1 111 L 657.6 111 L 657.6 0 L 671.1 0 L 671.1 45.45 Q 675.3 39.3 681.75 35.25 A 26.358 26.358 0 0 1 692.437 31.486 A 33.893 33.893 0 0 1 696.9 31.2 Q 710.1 31.2 716.625 39.15 Q 722.812 46.689 723.133 58.813 A 50.646 50.646 0 0 1 723.15 60.15 L 723.15 111 L 709.65 111 L 709.65 61.65 A 29.436 29.436 0 0 0 709.146 56.039 Q 708.501 52.717 707.029 50.095 A 16.474 16.474 0 0 0 705.75 48.15 A 12.63 12.63 0 0 0 696.513 43.13 A 17.969 17.969 0 0 0 694.8 43.05 A 19.844 19.844 0 0 0 684.73 45.85 A 26.378 26.378 0 0 0 681.675 47.925 Q 675.45 52.8 671.1 59.4 L 671.1 111 Z" id="11" vector-effect="non-scaling-stroke"/>
	</g>
</svg>